# xmcd
#
# Track frame offsets: 
#        150
#        28075
#        58400
#        77788
#        100150
#        118700
#        138038
#        159950
#        176475
#
# Disc length: 2634 seconds
#
# Revision: 2
# Processed by: cddbd v1.5.1PL0 Copyright (c) Steve Scherf et al.
# Submitted via: ExactAudioCopy v0.95a5
#
DISCID=630a3709,6f0a4809
DTITLE=Willie Dixon - I Am the Blues [MFSL]
DYEAR=1970
DGENRE=Blues
TTITLE0=Back Door Man
TTITLE1=I Can't Quit You Baby
TTITLE2=The Seventh Son
TTITLE3=Spoonful
TTITLE4=I Ain't Superstitious
TTITLE5=You Shook Me
TTITLE6=(I'm Your) Hoochie Couchie Man
TTITLE7=The Little Red Rooster
TTITLE8=The Same Thing
EXTD=
EXTT0=
EXTT1=
EXTT2=
EXTT3=
EXTT4=
EXTT5=
EXTT6=
EXTT7=
EXTT8=
PLAYORDER=
